<svg width="24" height="24" viewBox="0 0 24 24" fill="none" xmlns="http://www.w3.org/2000/svg">
<path d="M21.999 8.99988H1.99902M13.999 17.4999L16.499 14.9999L13.999 12.4999M9.99902 12.4999L7.49902 14.9999L9.99902 17.4999M1.99902 7.79988L1.99902 16.1999C1.99902 17.88 1.99902 18.7201 2.326 19.3618C2.61362 19.9263 3.07257 20.3853 3.63705 20.6729C4.27879 20.9999 5.11886 20.9999 6.79902 20.9999H17.199C18.8792 20.9999 19.7193 20.9999 20.361 20.6729C20.9255 20.3853 21.3844 19.9263 21.672 19.3618C21.999 18.7201 21.999 17.88 21.999 16.1999V7.79988C21.999 6.11972 21.999 5.27964 21.672 4.63791C21.3844 4.07342 20.9255 3.61448 20.361 3.32686C19.7193 2.99988 18.8792 2.99988 17.199 2.99988L6.79902 2.99988C5.11887 2.99988 4.27879 2.99988 3.63705 3.32686C3.07257 3.61448 2.61362 4.07342 2.326 4.63791C1.99902 5.27964 1.99902 6.11972 1.99902 7.79988Z" stroke="#334155" stroke-width="2" stroke-linecap="round" stroke-linejoin="round"/>
</svg>
