<svg width="17" height="17" viewBox="0 0 17 17" fill="none" xmlns="http://www.w3.org/2000/svg">
<path fill-rule="evenodd" clip-rule="evenodd" d="M7 1.50039C5.54131 1.50039 4.14236 2.07985 3.11091 3.1113C2.07946 4.14275 1.5 5.5417 1.5 7.00039C1.5 8.45908 2.07946 9.85802 3.11091 10.8895C4.14236 11.9209 5.54131 12.5004 7 12.5004C8.45869 12.5004 9.85764 11.9209 10.8891 10.8895C11.9205 9.85802 12.5 8.45908 12.5 7.00039C12.5 5.5417 11.9205 4.14275 10.8891 3.1113C9.85764 2.07985 8.45869 1.50039 7 1.50039ZM1.61595e-08 7.00039C9.44369e-05 5.88106 0.268612 4.77807 0.783029 3.78395C1.29745 2.78983 2.04276 1.93356 2.95645 1.28698C3.87015 0.640403 4.92557 0.222361 6.0342 0.0679247C7.14282 -0.0865114 8.27232 0.027162 9.32794 0.399409C10.3836 0.771657 11.3345 1.39162 12.101 2.2073C12.8676 3.02298 13.4273 4.01059 13.7333 5.08728C14.0393 6.16397 14.0827 7.29834 13.8597 8.39524C13.6368 9.49214 13.154 10.5196 12.452 11.3914L15.78 14.7204C15.8537 14.789 15.9128 14.8718 15.9538 14.9638C15.9948 15.0558 16.0168 15.1552 16.0186 15.2559C16.0204 15.3566 16.0018 15.4566 15.9641 15.55C15.9264 15.6434 15.8703 15.7282 15.799 15.7994C15.7278 15.8706 15.643 15.9268 15.5496 15.9645C15.4562 16.0022 15.3562 16.0208 15.2555 16.019C15.1548 16.0172 15.0555 15.9952 14.9635 15.9542C14.8715 15.9132 14.7887 15.8541 14.72 15.7804L11.391 12.4524C10.3625 13.2808 9.12074 13.8013 7.80901 13.954C6.49727 14.1066 5.16912 13.885 3.97795 13.3149C2.78677 12.7448 1.78117 11.8493 1.07727 10.732C0.373379 9.61464 -8.9698e-05 8.32097 1.61595e-08 7.00039Z" fill="#334155"/>
</svg>
