<svg width="18" height="18" viewBox="0 0 18 18" fill="none" xmlns="http://www.w3.org/2000/svg">
<path d="M8.82085 1.06438C8.9297 0.72936 9.40367 0.72936 9.51253 1.06438L11.3302 6.65856C11.3789 6.80839 11.5185 6.90983 11.676 6.90983H17.5581C17.9104 6.90983 18.0568 7.3606 17.7718 7.56765L13.0131 11.025C12.8857 11.1176 12.8324 11.2818 12.881 11.4316L14.6987 17.0258C14.8076 17.3608 14.4241 17.6394 14.1391 17.4323L9.38043 13.975C9.25298 13.8824 9.0804 13.8824 8.95295 13.975L4.19425 17.4323C3.90927 17.6394 3.52582 17.3608 3.63467 17.0258L5.45233 11.4316C5.50101 11.2818 5.44768 11.1176 5.32023 11.025L0.56154 7.56765C0.276553 7.3606 0.423017 6.90983 0.77528 6.90983H6.65735C6.81489 6.90983 6.95451 6.80839 7.00319 6.65856L8.82085 1.06438Z" fill="#EAB308"/>
</svg>
